<svg width="31" height="31" viewBox="0 0 31 31" fill="none" xmlns="http://www.w3.org/2000/svg">
<path d="M15.5 2.45964e-06C24.0706 3.20891e-06 31 6.92941 31 15.5C31 24.0706 24.0706 31 15.5 31C6.92941 31 4.42049e-06 24.0706 5.16975e-06 15.5C5.91901e-06 6.92941 6.92942 1.71038e-06 15.5 2.45964e-06ZM15.5 29.1765C23.0676 29.1765 29.1765 23.0676 29.1765 15.5C29.1765 7.93235 23.0677 1.82353 15.5 1.82353C7.93236 1.82353 1.82353 7.93235 1.82353 15.5C1.82353 23.0676 7.93235 29.1765 15.5 29.1765Z" fill="#A6786D"/>
<path d="M7.93235 13.95L15.5 21.5177L23.0676 13.95L24.3441 15.2265L15.5 24.0706L6.65588 15.2265L7.93235 13.95Z" fill="#A6786D"/>
<path d="M16.4117 22.7941L14.5882 22.7941L14.5882 7.29407L16.4117 7.29407L16.4117 22.7941Z" fill="#A6786D"/>
</svg>
