<svg width="573" height="500" viewBox="0 0 573 500" fill="none" xmlns="http://www.w3.org/2000/svg">
<path d="M466.213 35.3125C466.213 35.3125 403.05 -16.275 320.9 6.56253C238.75 29.4 204.35 100.238 157.25 148.9C132.575 174.375 96.1251 183.763 66.8126 203.375C-26.9374 266.088 -13.0374 407.125 59.2376 460.25C121.813 506.3 200 511.113 301.738 477.15C403.475 443.188 476.275 422.788 539.363 325.5C602.45 228.213 544.025 105.325 466.213 35.3125Z" fill="#E1C3B8"/>
<path opacity="0.7" d="M466.213 35.3125C466.213 35.3125 403.05 -16.275 320.9 6.56253C238.75 29.4 204.35 100.238 157.25 148.9C132.575 174.375 96.1251 183.763 66.8126 203.375C-26.9374 266.088 -13.0374 407.125 59.2376 460.25C121.813 506.3 200 511.113 301.738 477.15C403.475 443.188 476.275 422.788 539.363 325.5C602.45 228.213 544.025 105.325 466.213 35.3125Z" fill="white"/>
<path d="M28.125 484.25H572.25" stroke="#263238" stroke-linecap="round" stroke-linejoin="round"/>
<path d="M8.5 484.25H19.4" stroke="#263238" stroke-linecap="round" stroke-linejoin="round"/>
<path d="M144.65 54.25H37.925V226.75H144.65V54.25Z" stroke="#263238" stroke-miterlimit="10"/>
<path d="M131.437 75.6125H51.1375V205.4H131.437V75.6125Z" stroke="#263238" stroke-miterlimit="10"/>
<path d="M536 54.25H429.275V226.75H536V54.25Z" stroke="#263238" stroke-miterlimit="10"/>
<path d="M522.788 75.6125H442.488V205.4H522.788V75.6125Z" stroke="#263238" stroke-miterlimit="10"/>
<path d="M188.85 140.9H178.675V191.425H188.85V140.9Z" fill="#263238"/>
<mask id="mask0_1032_2" style="mask-type:luminance" maskUnits="userSpaceOnUse" x="178" y="140" width="11" height="52">
<path d="M188.85 140.9H178.675V191.425H188.85V140.9Z" fill="white"/>
</mask>
<g mask="url(#mask0_1032_2)">
<path d="M190.237 146.825H178.137V149.05H190.237V146.825Z" fill="#E1C3B8"/>
<path d="M190.237 183.637H178.137V185.862H190.237V183.637Z" fill="#E1C3B8"/>
</g>
<path d="M200.213 140.9H190.038V191.425H200.213V140.9Z" fill="#263238"/>
<mask id="mask1_1032_2" style="mask-type:luminance" maskUnits="userSpaceOnUse" x="190" y="140" width="11" height="52">
<path d="M200.213 140.9H190.038V191.425H200.213V140.9Z" fill="white"/>
</mask>
<g mask="url(#mask1_1032_2)">
<path d="M201.6 146.825H189.5V149.05H201.6V146.825Z" fill="#E1C3B8"/>
<path d="M201.6 183.637H189.5V185.862H201.6V183.637Z" fill="#E1C3B8"/>
</g>
<path d="M386.663 191.537V181.362H336.138V191.537H386.663Z" fill="#263238"/>
<mask id="mask2_1032_2" style="mask-type:luminance" maskUnits="userSpaceOnUse" x="336" y="181" width="51" height="11">
<path d="M386.663 191.537V181.362H336.138V191.537H386.663Z" fill="white"/>
</mask>
<g mask="url(#mask2_1032_2)">
<path d="M380.725 192.912V180.812H378.5V192.912H380.725Z" fill="#E1C3B8"/>
<path d="M343.913 192.912V180.812H341.688V192.912H343.913Z" fill="#E1C3B8"/>
</g>
<path d="M386.65 181.225V171.05H336.125V181.225H386.65Z" fill="#263238"/>
<mask id="mask3_1032_2" style="mask-type:luminance" maskUnits="userSpaceOnUse" x="336" y="171" width="51" height="11">
<path d="M386.65 181.225V171.05H336.125V181.225H386.65Z" fill="white"/>
</mask>
<g mask="url(#mask3_1032_2)">
<path d="M380.725 182.6V170.5H378.5V182.6H380.725Z" fill="#E1C3B8"/>
<path d="M343.925 182.6V170.5H341.7V182.6H343.925Z" fill="#E1C3B8"/>
</g>
<path d="M209.62 140.483L199.88 143.427L214.5 191.791L224.24 188.847L209.62 140.483Z" fill="#263238"/>
<mask id="mask4_1032_2" style="mask-type:luminance" maskUnits="userSpaceOnUse" x="199" y="140" width="26" height="52">
<path d="M209.62 140.483L199.88 143.427L214.5 191.791L224.24 188.847L209.62 140.483Z" fill="white"/>
</mask>
<g mask="url(#mask4_1032_2)">
<path d="M212.668 145.767L201.085 149.269L201.729 151.398L213.312 147.897L212.668 145.767Z" fill="#E1C3B8"/>
<path d="M223.309 180.994L211.727 184.496L212.371 186.625L223.953 183.124L223.309 180.994Z" fill="#E1C3B8"/>
</g>
<path d="M283.738 175.237C283.738 175.237 275.825 165.85 277.313 162.15C278.8 158.45 281.063 162.887 281.063 162.887C281.063 162.887 274.4 147.887 280.575 147.075C286.75 146.262 289.713 158.687 289.713 158.687C289.713 158.687 291.938 145.837 295.888 150.037C299.838 154.237 295.15 165.112 295.15 165.112C295.15 165.112 303.3 158.687 301.325 164.125C299.35 169.562 291.188 175.975 291.188 175.975L283.738 175.237Z" fill="#E1C3B8"/>
<path d="M284.75 175.5C284.75 175.5 274.125 166.85 278.325 164.875C282.525 162.9 284.988 167.1 284.988 167.1C284.988 167.1 282.488 152.025 287.213 152.025C291.938 152.025 290.963 163.887 290.963 163.887C290.963 163.887 293.675 154.5 296.15 157.962C298.625 161.425 292.688 176.487 292.688 176.487" stroke="#263238" stroke-miterlimit="10"/>
<path d="M296.825 173.012H278.3L280.15 191.05H294.975L296.825 173.012Z" fill="#263238"/>
<path d="M222.913 101.425H203.65V122.325H222.913V101.425Z" fill="#E1C3B8"/>
<path d="M218.025 83.1375H208.55V104.037H218.025V83.1375Z" fill="#E1C3B8"/>
<path d="M188.85 72.1499H178.675V122.675H188.85V72.1499Z" fill="#263238"/>
<mask id="mask5_1032_2" style="mask-type:luminance" maskUnits="userSpaceOnUse" x="178" y="72" width="11" height="51">
<path d="M188.85 72.1499H178.675V122.675H188.85V72.1499Z" fill="white"/>
</mask>
<g mask="url(#mask5_1032_2)">
<path d="M190.237 78.075H178.137V80.2999H190.237V78.075Z" fill="#E1C3B8"/>
<path d="M190.237 114.887H178.137V117.112H190.237V114.887Z" fill="#E1C3B8"/>
</g>
<path d="M397.64 72.478L387.624 70.6902L378.746 120.429L388.762 122.217L397.64 72.478Z" fill="#263238"/>
<mask id="mask6_1032_2" style="mask-type:luminance" maskUnits="userSpaceOnUse" x="378" y="70" width="20" height="53">
<path d="M397.64 72.478L387.623 70.6902L378.746 120.429L388.762 122.217L397.64 72.478Z" fill="white"/>
</mask>
<g mask="url(#mask6_1032_2)">
<path d="M397.976 78.5614L386.065 76.4353L385.674 78.6257L397.585 80.7518L397.976 78.5614Z" fill="#E1C3B8"/>
<path d="M391.497 114.797L379.585 112.671L379.194 114.862L391.106 116.988L391.497 114.797Z" fill="#E1C3B8"/>
</g>
<path d="M200.213 72.1499H190.038V122.675H200.213V72.1499Z" fill="#263238"/>
<mask id="mask7_1032_2" style="mask-type:luminance" maskUnits="userSpaceOnUse" x="190" y="72" width="11" height="51">
<path d="M200.213 72.1499H190.038V122.675H200.213V72.1499Z" fill="white"/>
</mask>
<g mask="url(#mask7_1032_2)">
<path d="M201.6 78.075H189.5V80.2999H201.6V78.075Z" fill="#E1C3B8"/>
<path d="M201.6 114.887H189.5V117.112H201.6V114.887Z" fill="#E1C3B8"/>
</g>
<path d="M263.025 72.1499H252.85V122.675H263.025V72.1499Z" fill="#263238"/>
<mask id="mask8_1032_2" style="mask-type:luminance" maskUnits="userSpaceOnUse" x="252" y="72" width="12" height="51">
<path d="M263.025 72.1499H252.85V122.675H263.025V72.1499Z" fill="white"/>
</mask>
<g mask="url(#mask8_1032_2)">
<path d="M264.4 78.075H252.3V80.2999H264.4V78.075Z" fill="#E1C3B8"/>
<path d="M264.4 114.887H252.3V117.112H264.4V114.887Z" fill="#E1C3B8"/>
</g>
<path d="M273.3 72.1499H263.125V122.675H273.3V72.1499Z" fill="#6B6B6B"/>
<mask id="mask9_1032_2" style="mask-type:luminance" maskUnits="userSpaceOnUse" x="263" y="72" width="11" height="51">
<path d="M273.3 72.1499H263.125V122.675H273.3V72.1499Z" fill="white"/>
</mask>
<g mask="url(#mask9_1032_2)">
<path d="M274.675 78.075H262.575V80.2999H274.675V78.075Z" fill="#E1C3B8"/>
<path d="M274.675 114.887H262.575V117.112H274.675V114.887Z" fill="#E1C3B8"/>
</g>
<path d="M283.575 72.1499H273.4V122.675H283.575V72.1499Z" fill="#263238"/>
<mask id="mask10_1032_2" style="mask-type:luminance" maskUnits="userSpaceOnUse" x="273" y="72" width="11" height="51">
<path d="M283.575 72.1499H273.4V122.675H283.575V72.1499Z" fill="white"/>
</mask>
<g mask="url(#mask10_1032_2)">
<path d="M284.95 78.075H272.85V80.2999H284.95V78.075Z" fill="#E1C3B8"/>
<path d="M284.95 114.887H272.85V117.112H284.95V114.887Z" fill="#E1C3B8"/>
</g>
<path d="M293.85 72.1499H283.675V122.675H293.85V72.1499Z" fill="#6B6B6B"/>
<mask id="mask11_1032_2" style="mask-type:luminance" maskUnits="userSpaceOnUse" x="283" y="72" width="11" height="51">
<path d="M293.85 72.1499H283.675V122.675H293.85V72.1499Z" fill="white"/>
</mask>
<g mask="url(#mask11_1032_2)">
<path d="M295.225 78.075H283.125V80.2999H295.225V78.075Z" fill="#E1C3B8"/>
<path d="M295.225 114.887H283.125V117.112H295.225V114.887Z" fill="#E1C3B8"/>
</g>
<path d="M304.125 72.1499H293.95V122.675H304.125V72.1499Z" fill="#263238"/>
<mask id="mask12_1032_2" style="mask-type:luminance" maskUnits="userSpaceOnUse" x="293" y="72" width="12" height="51">
<path d="M304.125 72.1499H293.95V122.675H304.125V72.1499Z" fill="white"/>
</mask>
<g mask="url(#mask12_1032_2)">
<path d="M305.5 78.075H293.4V80.2999H305.5V78.075Z" fill="#E1C3B8"/>
<path d="M305.5 114.887H293.4V117.112H305.5V114.887Z" fill="#E1C3B8"/>
</g>
<path d="M378.562 122.775V112.6H328.037V122.775H378.562Z" fill="#263238"/>
<mask id="mask13_1032_2" style="mask-type:luminance" maskUnits="userSpaceOnUse" x="328" y="112" width="51" height="11">
<path d="M378.562 122.775V112.6H328.037V122.775H378.562Z" fill="white"/>
</mask>
<g mask="url(#mask13_1032_2)">
<path d="M372.625 124.162V112.062H370.4V124.162H372.625Z" fill="#E1C3B8"/>
<path d="M335.825 124.162V112.062H333.6V124.162H335.825Z" fill="#E1C3B8"/>
</g>
<path d="M170.788 53.8374V196.975H403.5V53.8374H170.788ZM321.963 59.2499V122.587H252.25V59.2499H321.963ZM176.725 59.2499H246.375V122.587H176.725V59.2499ZM176.725 191.575V128.225H246.375V191.575H176.725ZM252.3 191.575V128.225H321.963V191.575H252.3ZM397.55 191.575H327.888V128.225H397.55V191.575ZM327.888 122.587V59.2499H397.55V122.587H327.888Z" stroke="#263238" stroke-linecap="round" stroke-linejoin="round"/>
<path d="M229.812 398.35H209.262V484.25H229.812V398.35Z" fill="white" stroke="#263238" stroke-linecap="round" stroke-linejoin="round"/>
<path d="M365 398.35H344.45V484.25H365V398.35Z" fill="white" stroke="#263238" stroke-linecap="round" stroke-linejoin="round"/>
<path d="M365.012 389.263H209.262V402.713H365.012V389.263Z" fill="white" stroke="#263238" stroke-linecap="round" stroke-linejoin="round"/>
<path d="M276.312 373.163C274.398 370.129 272.311 367.208 270.062 364.413C266.938 360.663 258.188 353.475 258.188 353.475L269.438 359.413C269.438 359.413 267.562 354.1 265.688 349.725C263.812 345.35 260.688 334.725 260.688 334.725C260.688 334.725 268.188 347.538 270.062 349.725C271.938 351.913 275.062 356.6 275.062 356.6C275.062 356.6 275.375 344.725 276.938 340.975C278.5 337.225 285.062 328.475 285.062 328.475C285.062 328.475 282.875 342.225 282.875 343.788C282.875 345.35 283.812 355.038 283.812 355.038L287.562 335.35L287.875 349.1L290.688 334.413C290.688 334.413 292.875 345.663 293.5 349.1C293.904 351.685 294.112 354.296 294.125 356.913L296.938 346.6L303.812 334.725C303.812 334.725 303.812 348.163 303.5 349.413C303.188 350.663 302.875 358.788 302.875 358.788L306.938 354.413L303.812 364.1L307.875 364.725L309.75 366.288C309.75 366.288 302.25 368.525 298.95 369.438C295.65 370.35 289.438 374.1 289.438 374.1L276.312 373.163Z" fill="#E1C3B8"/>
<path d="M278.5 373.163C278.5 373.163 273.188 361.6 267.875 358.788C262.562 355.975 260.062 354.725 260.062 354.725C260.062 354.725 267.875 355.038 271.938 357.85C274.531 359.75 276.666 362.206 278.188 365.038C277.362 361.133 276.943 357.153 276.938 353.163C276.938 346.6 278.5 332.538 278.5 332.538C278.5 332.538 278.188 350.038 279.75 355.975C280.859 359.953 282.323 363.822 284.125 367.538C284.125 367.538 284.75 361.913 285.688 356.288C286.858 350.797 288.318 345.373 290.062 340.038L287.562 362.538C289.239 359.735 290.701 356.81 291.938 353.788C293.812 349.1 303.188 342.85 303.188 342.85C303.188 342.85 296 351.913 294.438 356.913C292.875 361.913 291.312 366.288 291.312 366.288C293.042 363.606 295.147 361.185 297.562 359.1C301.312 355.975 308.188 354.1 308.188 354.1C308.188 354.1 298.812 360.975 297.875 363.163C296.938 365.35 295.375 369.413 295.375 369.413C295.375 369.413 304.125 361.913 311.625 359.725C311.625 359.725 300.062 367.85 296.938 373.475L278.5 373.163Z" stroke="#263238" stroke-linecap="round" stroke-linejoin="round"/>
<path d="M271.975 370.688C271.46 372.515 271.187 374.402 271.162 376.3C271.162 387.75 277.987 388.7 286.4 388.7C294.812 388.7 301.637 388.063 301.637 376.3C301.613 374.402 301.339 372.515 300.825 370.688H271.975Z" fill="#263238" stroke="#263238" stroke-linecap="round" stroke-linejoin="round"/>
<path d="M271.162 376.3C271.162 376.55 271.162 376.775 271.162 377.025H301.587C301.587 376.775 301.587 376.55 301.587 376.3C301.587 375.788 301.587 375.263 301.512 374.725H271.237C271.187 375.242 271.162 375.767 271.162 376.3Z" fill="#E1C3B8"/>
<path d="M301.363 379.913C301.363 379.563 301.463 379.188 301.5 378.8H271.3C271.3 379.188 271.388 379.563 271.45 379.913H301.363Z" fill="#E1C3B8"/>
<path d="M534.963 397.763L542 483.7H539.538L526.863 398.475L534.963 397.763Z" fill="white" stroke="#263238" stroke-linecap="round" stroke-linejoin="round"/>
<path d="M482.15 397.763L489.188 483.7H486.725L474.05 398.475L482.15 397.763Z" fill="white" stroke="#263238" stroke-linecap="round" stroke-linejoin="round"/>
<path d="M475.813 397.763L468.763 483.7H471.238L483.913 398.475L475.813 397.763Z" fill="white" stroke="#263238" stroke-linecap="round" stroke-linejoin="round"/>
<path d="M415.95 397.763L408.913 483.7H411.375L424.05 398.475L415.95 397.763Z" fill="white" stroke="#263238" stroke-linecap="round" stroke-linejoin="round"/>
<path d="M480.363 260.575H558.5C558.5 260.575 567.875 263.175 563.713 274.125C559.55 285.075 536.125 400.75 536.125 400.75H412.1L404.288 328.837C404.288 328.837 402.713 318.412 410.013 316.85C417.313 315.287 447.013 316.325 452.75 313.2C458.488 310.075 471.4 264.737 471.4 264.737C471.4 264.737 472.538 259.512 480.363 260.575Z" fill="#E1C3B8" stroke="#263238" stroke-linecap="round" stroke-linejoin="round"/>
<path d="M474.413 384.375H412.062" stroke="#263238" stroke-linecap="round" stroke-linejoin="round"/>
<path d="M520.6 170.162C515.411 166.223 509.259 163.75 502.788 163C492.725 162.138 478.075 174.25 477.788 180.813C477.5 187.375 473.775 186.275 472.625 190.013C471.475 193.75 476.063 193.163 476.063 195.75C476.063 198.338 470.038 201.5 470.613 203.8C471.188 206.1 477.5 208.4 477.5 209.825C477.5 211.25 474.05 213.85 476.925 216.15C479.8 218.45 482.675 216.725 483.825 219.6C484.975 222.475 487.575 225.35 488.425 223.35C489.275 221.35 486.413 209.6 487.563 201.225C488.713 192.85 491.013 189.163 499.913 185.713C508.813 182.263 515.138 179.675 518.875 176.225C522.613 172.775 520.6 170.162 520.6 170.162Z" fill="#263238"/>
<mask id="mask14_1032_2" style="mask-type:luminance" maskUnits="userSpaceOnUse" x="470" y="162" width="52" height="63">
<path d="M520.6 170.162C515.411 166.223 509.259 163.75 502.788 163C492.725 162.138 478.075 174.25 477.788 180.813C477.5 187.375 473.775 186.275 472.625 190.013C471.475 193.75 476.063 193.163 476.063 195.75C476.063 198.338 470.038 201.5 470.613 203.8C471.188 206.1 477.5 208.4 477.5 209.825C477.5 211.25 474.05 213.85 476.925 216.15C479.8 218.45 482.675 216.725 483.825 219.6C484.975 222.475 487.575 225.35 488.425 223.35C489.275 221.35 486.413 209.6 487.563 201.225C488.713 192.85 491.013 189.163 499.913 185.713C508.813 182.263 515.138 179.675 518.875 176.225C522.613 172.775 520.6 170.162 520.6 170.162Z" fill="white"/>
</mask>
<g mask="url(#mask14_1032_2)">
<path d="M508.288 171.275C508.288 171.275 500.788 165.9 495.388 170.55C489.988 175.2 490.388 180.937 486.425 182.737C482.463 184.537 476.75 185.6 478.925 190.612C481.1 195.625 485.025 203.112 480.725 204.587C476.425 206.062 473.225 209.962 474.625 211.4" stroke="#666666" stroke-linecap="round" stroke-linejoin="round"/>
</g>
<path d="M520.6 170.162C515.411 166.223 509.259 163.75 502.788 163C492.725 162.138 478.075 174.25 477.788 180.813C477.5 187.375 473.775 186.275 472.625 190.013C471.475 193.75 476.063 193.163 476.063 195.75C476.063 198.338 470.038 201.5 470.613 203.8C471.188 206.1 477.5 208.4 477.5 209.825C477.5 211.25 474.05 213.85 476.925 216.15C479.8 218.45 482.675 216.725 483.825 219.6C484.975 222.475 487.575 225.35 488.425 223.35C489.275 221.35 486.413 209.6 487.563 201.225C488.713 192.85 491.013 189.163 499.913 185.713C508.813 182.263 515.138 179.675 518.875 176.225C522.613 172.775 520.6 170.162 520.6 170.162Z" stroke="#263238" stroke-linecap="round" stroke-linejoin="round"/>
<path d="M502.25 176.188C502.25 176.188 487.888 182.8 485.875 188.263C483.863 193.725 485.3 203.488 484.725 204.925C484.15 206.363 479.55 208.95 480.125 210.088C481.04 211.358 482.102 212.516 483.288 213.538C483.288 213.538 483.863 228.475 487.6 229.625C491.338 230.775 501.35 227.625 501.35 227.625L507.388 249.738L532.088 242.85L522.9 221.875C522.9 221.875 534.15 207.225 535.25 197.45C536.35 187.675 526.638 174.463 519.45 173.025C512.263 171.588 503.363 175.613 503.363 175.613L502.25 176.188Z" fill="#B2B2B2" stroke="#263238" stroke-linecap="round" stroke-linejoin="round"/>
<path d="M490 205.775C490.711 205.775 491.288 204.555 491.288 203.05C491.288 201.545 490.711 200.325 490 200.325C489.289 200.325 488.713 201.545 488.713 203.05C488.713 204.555 489.289 205.775 490 205.775Z" fill="#263238"/>
<path d="M488.138 195.15C488.138 195.15 491.3 191.4 494.738 195.725" stroke="#263238" stroke-linecap="round" stroke-linejoin="round"/>
<path d="M472.85 317.262C472.85 317.262 448.05 322.625 444.213 323.137C440.375 323.65 436.288 322.125 435.263 321.887C434.238 321.65 426.063 317.537 425.038 317.537C424.013 317.537 420.95 320.1 417.625 320.862C414.3 321.625 409.963 320.1 409.188 321.637C408.413 323.175 412 323.675 413.788 323.937C415.575 324.2 419.675 324.187 419.675 324.187C419.675 324.187 413.025 328.025 412 328.537C410.975 329.05 404.075 327 404.588 329.3C405.1 331.6 415.325 332.887 419.675 333.387C424.025 333.887 435.263 330.075 435.263 330.075C435.263 330.075 450.088 333.387 456.513 333.137C462.938 332.887 471.588 332.375 471.588 332.375L472.85 317.262Z" fill="#B2B2B2" stroke="#263238" stroke-linecap="round" stroke-linejoin="round"/>
<path d="M415.838 332.6C415.838 332.6 405.613 328.513 407.663 328.513C409.713 328.513 414.813 330.813 414.813 330.813C414.813 330.813 410.975 327.238 412.313 327.238C413.65 327.238 421 330.5 421 330.5C421 330.5 416.138 327.688 418.95 328.2C421.763 328.713 427.7 330.5 427.7 330.5" fill="#B2B2B2"/>
<path d="M415.838 332.6C415.838 332.6 405.613 328.513 407.663 328.513C409.713 328.513 414.813 330.813 414.813 330.813C414.813 330.813 410.975 327.238 412.313 327.238C413.65 327.238 421 330.5 421 330.5C421 330.5 416.138 327.688 418.95 328.2C421.763 328.713 427.7 330.5 427.7 330.5" stroke="#263238" stroke-linecap="round" stroke-linejoin="round"/>
<path d="M391.825 331.238C391.825 331.238 374.325 331.238 370.45 341.063C366.575 350.888 397.95 463.638 397.95 463.638C397.95 463.638 386.838 476.025 379.138 479.025C371.438 482.025 370.163 482.875 373.15 483.725C376.138 484.575 390.25 484.975 397.525 482.875C404.8 480.775 414.625 475.175 418.475 473.463C422.325 471.75 416.763 468.338 414.2 461.925C411.638 455.513 402.063 416.313 401.638 403.913C401.213 391.513 396.925 357.313 396.925 357.313C396.925 357.313 410.613 367.15 436.263 371.85C461.913 376.55 437.125 344.913 425.575 337.65C414.025 330.388 391.825 331.238 391.825 331.238Z" fill="#263238" stroke="#263238" stroke-linecap="round" stroke-linejoin="round"/>
<path d="M402.25 469.613L397.25 464.375C394.75 467.05 385.688 476.463 379.113 479.025C371.413 482.013 370.138 482.875 373.125 483.725C376.113 484.575 390.225 484.975 397.5 482.875C404.775 480.775 414.6 475.175 418.45 473.463C422.063 471.863 417.388 468.75 414.7 463.075L402.25 469.613Z" fill="white" stroke="#263238" stroke-linecap="round" stroke-linejoin="round"/>
<path d="M372.763 481.75C371.15 482.687 371.425 483.187 373.175 483.687C376.175 484.55 390.275 484.937 397.55 482.837C404.825 480.737 414.65 475.137 418.5 473.425C420.263 472.637 420.038 471.487 419.038 469.862C410.525 473.862 392.625 482.137 389.513 482.55C385.725 483.087 374.563 481.975 372.763 481.75Z" fill="#263238" stroke="#263238" stroke-linecap="round" stroke-linejoin="round"/>
<path d="M530.362 239.4L501.35 247.725C501.35 247.725 498.763 258.362 491.013 264.112C483.263 269.862 473.513 275.362 471.188 285.075C468.863 294.787 469.463 304.037 470.038 312.662C470.613 321.287 463.713 339.375 463.713 339.375C463.713 339.375 419.75 329.9 405.1 330.5C390.45 331.1 379.825 329.062 377.525 343.712C375.225 358.362 385.025 459.687 385.025 459.687C385.025 459.687 370.088 473.437 363.475 477.512C356.863 481.587 351.413 484.112 355.15 485.55C358.888 486.987 377.563 484.975 384.45 483.825C391.338 482.675 403.413 482.1 405.138 478.075C406.863 474.05 400.825 455.387 401.113 453.662C401.4 451.937 401.95 411.512 404.537 396.862C406.257 386.206 407.408 375.466 407.988 364.687C407.988 364.687 472.062 382.5 487.863 382.5C503.663 382.5 514 380.2 518.6 353.75C523.2 327.3 519.463 323.575 524.925 312.95C530.388 302.325 535.55 289.1 536.175 272.725C536.8 256.35 530.362 239.4 530.362 239.4Z" fill="white" stroke="#263238" stroke-linecap="round" stroke-linejoin="round"/>
<path d="M479.9 354.75C470 346.737 465.813 341.538 464.1 338.325C463.863 339 463.713 339.375 463.713 339.375C463.713 339.375 419.75 329.9 405.1 330.5C390.45 331.1 379.825 329.063 377.525 343.713C375.225 358.363 385.025 459.688 385.025 459.688C385.025 459.688 370.088 473.437 363.475 477.512C356.863 481.587 351.413 484.113 355.15 485.55C358.888 486.988 377.563 484.975 384.45 483.825C391.338 482.675 403.413 482.1 405.138 478.075C406.863 474.05 400.825 455.387 401.113 453.662C401.4 451.938 401.95 411.512 404.538 396.862C406.257 386.206 407.408 375.466 407.988 364.688C407.988 364.688 472.063 382.5 487.863 382.5C499.438 382.5 508.088 381.25 513.688 370.187C503.575 367.787 490.438 363.275 479.9 354.75Z" fill="#263238" stroke="#263238" stroke-linecap="round" stroke-linejoin="round"/>
<path d="M384.025 460.575C380.588 463.7 369.025 474.075 363.463 477.488C356.863 481.5 351.4 484.088 355.138 485.525C358.875 486.963 377.55 484.95 384.438 483.8C391.325 482.65 403.4 482.075 405.125 478.05C406.15 475.663 404.425 468.05 402.925 461.95L388.575 466.625L384.025 460.575Z" fill="white" stroke="#263238" stroke-linecap="round" stroke-linejoin="round"/>
<path d="M355.138 485.5C358.888 486.937 377.55 484.925 384.438 483.775C391.325 482.625 403.4 482.05 405.125 478.025C405.202 477.844 405.26 477.655 405.3 477.462C391.188 480.387 366.813 482.462 354.363 483.412C353.638 484.25 353.75 485 355.138 485.5Z" fill="#263238" stroke="#263238" stroke-linecap="round" stroke-linejoin="round"/>
<path d="M501.35 247.725C501.35 247.725 498.763 258.362 491.013 264.112C483.263 269.862 473.513 275.362 471.188 285.075C468.862 294.787 469.463 304.037 470.038 312.662C470.613 321.287 463.713 339.375 463.713 339.375C463.713 339.375 458.413 338.237 450.875 336.762C452.65 347.912 460.738 379.775 495.113 382.2C506.85 381.087 514.738 375.887 518.588 353.75C523.188 327.312 519.45 323.575 524.913 312.95C530.375 302.325 535.538 289.1 536.163 272.725C536.788 256.35 530.413 239.4 530.413 239.4L501.35 247.725Z" fill="white" stroke="#263238" stroke-linecap="round" stroke-linejoin="round"/>
<path d="M498.763 255.2L532.088 246.288" stroke="#263238" stroke-linecap="round" stroke-linejoin="round"/>
<path d="M429.213 291.963C429.213 291.963 427.85 283.3 426.263 284.538C424.675 285.775 426.625 293.462 426.625 293.462C427.515 293.773 428.446 293.954 429.388 294" fill="#B2B2B2"/>
<path d="M429.213 291.963C429.213 291.963 427.85 283.3 426.263 284.538C424.675 285.775 426.625 293.462 426.625 293.462C427.515 293.773 428.446 293.954 429.388 294" stroke="#263238" stroke-linecap="round" stroke-linejoin="round"/>
<path d="M530.65 261.525C530.65 261.525 528.925 253.188 518.3 254.625C507.675 256.063 503.937 261.238 501.062 275.313C498.187 289.388 493.875 312.375 493.875 312.375C493.875 312.375 457.1 289.388 451.65 285.65C446.2 281.913 439.287 281.35 436.137 283.638C432.987 285.925 424.35 294.275 424.35 294.275C424.35 294.275 420.037 285.65 419.462 288.525C418.887 291.4 420.9 298.875 425.212 300.6C429.525 302.325 437.262 296.363 438.125 296.075C438.987 295.788 432.95 302.113 434.962 302.4C436.975 302.688 438.712 300.1 442.462 297.8C444.944 296.188 447.18 294.226 449.1 291.975C449.1 291.975 469.5 311.513 475.812 316.4C482.125 321.288 499.337 334.25 502.787 334.25C506.237 334.25 510.825 328.788 513.125 323.9C515.425 319.013 529.5 287.65 531.512 272.475" fill="#B2B2B2"/>
<path d="M530.65 261.525C530.65 261.525 528.925 253.188 518.3 254.625C507.675 256.063 503.937 261.238 501.062 275.313C498.187 289.388 493.875 312.375 493.875 312.375C493.875 312.375 457.1 289.388 451.65 285.65C446.2 281.913 439.287 281.35 436.137 283.638C432.987 285.925 424.35 294.275 424.35 294.275C424.35 294.275 420.037 285.65 419.462 288.525C418.887 291.4 420.9 298.875 425.212 300.6C429.525 302.325 437.262 296.363 438.125 296.075C438.987 295.788 432.95 302.113 434.962 302.4C436.975 302.688 438.712 300.1 442.462 297.8C444.944 296.188 447.18 294.226 449.1 291.975C449.1 291.975 469.5 311.513 475.812 316.4C482.125 321.288 499.337 334.25 502.787 334.25C506.237 334.25 510.825 328.788 513.125 323.9C515.425 319.013 529.5 287.65 531.512 272.475" stroke="#263238" stroke-linecap="round" stroke-linejoin="round"/>
<path d="M438.125 296.075L439.375 293.75C438.839 292.701 438.38 291.615 438 290.5C437.942 290.008 437.998 289.509 438.165 289.043C438.332 288.577 438.605 288.155 438.963 287.812" fill="white"/>
<path d="M438.125 296.075L439.375 293.75C438.839 292.701 438.38 291.615 438 290.5C437.942 290.008 437.998 289.509 438.165 289.043C438.332 288.577 438.605 288.155 438.963 287.812" stroke="#263238" stroke-linecap="round" stroke-linejoin="round"/>
<path d="M426.338 296.537C426.338 296.537 417 287.587 416.25 290.437C415.5 293.287 424.638 300.6 424.638 300.6C425.379 300.756 426.152 300.658 426.832 300.323C427.512 299.987 428.06 299.433 428.388 298.75" fill="#B2B2B2"/>
<path d="M426.338 296.537C426.338 296.537 417 287.587 416.25 290.437C415.5 293.287 424.638 300.6 424.638 300.6C425.379 300.756 426.152 300.658 426.832 300.323C427.512 299.987 428.06 299.433 428.388 298.75" stroke="#263238" stroke-linecap="round" stroke-linejoin="round"/>
<path d="M430.138 296.95C430.138 296.95 425.763 284.788 423.825 286.95C421.888 289.113 426.813 299.775 426.813 299.775C426.813 299.775 427.513 302.363 432.688 298.825" fill="#B2B2B2"/>
<path d="M430.138 296.95C430.138 296.95 425.763 284.788 423.825 286.95C421.888 289.113 426.813 299.775 426.813 299.775C426.813 299.775 427.513 302.363 432.688 298.825" stroke="#263238" stroke-linecap="round" stroke-linejoin="round"/>
<path d="M553.613 315.562C553.613 315.562 534.437 331.625 511.412 333.225C488.387 334.825 478.35 339.063 476.887 351.763C475.425 364.463 473.688 400.363 473.688 400.363L535.712 400.75L550.1 332.588L553.613 315.562Z" fill="#E1C3B8" stroke="#263238" stroke-linecap="round" stroke-linejoin="round"/>
<path d="M538.012 333.863C538.012 333.863 532.263 341.538 517.875 342.813C503.487 344.088 492.612 346.013 489.125 350.813" stroke="#263238" stroke-linecap="round" stroke-linejoin="round"/>
<path d="M560.75 222.675C558.113 221.912 562.263 217.012 564.15 212.487C566.038 207.962 560.75 205.312 556.65 203.05C552.55 200.787 556.65 196.25 556.275 190.212C555.9 184.175 551.275 184.287 549.1 180.787C546.925 177.287 550.988 165.687 536.275 164.175C521.563 162.662 515.9 164.937 509.85 167.925C506.938 169.495 504.541 171.874 502.95 174.775C501.563 176.087 500.45 177.737 501.113 179.325C502.55 182.775 503.988 185.075 501.975 188.812C499.963 192.55 501.113 195.987 502.838 197.425C504.563 198.862 504.563 202.6 501.688 205.475C498.813 208.35 499.675 210.637 502.263 212.075C504.85 213.512 507.725 217.25 505.138 220.7C502.55 224.15 503.413 229.025 508.588 230.175C510.239 230.443 511.862 230.862 513.438 231.425L514.688 236.937C514.325 239.325 513.875 241.5 515.788 241.937C516.598 242.044 517.42 241.891 518.138 241.5C519.052 241.315 519.95 241.06 520.825 240.737C522.713 239.975 523.463 244.487 525.35 248.237C527.238 251.987 532.85 250.125 535.925 247.475C536.232 247.189 536.599 246.977 537 246.853C537.4 246.73 537.823 246.699 538.238 246.762C539.352 247.623 540.696 248.136 542.1 248.237C543.916 249.176 545.966 249.567 548 249.362C553.663 248.612 552.9 246.35 553.663 242.95C554.425 239.55 557.413 239.55 561.963 235.775C566.513 232 563.388 223.425 560.75 222.675Z" fill="#263238"/>
<mask id="mask15_1032_2" style="mask-type:luminance" maskUnits="userSpaceOnUse" x="499" y="163" width="66" height="88">
<path d="M560.75 222.675C558.113 221.912 562.263 217.012 564.15 212.487C566.038 207.962 560.75 205.312 556.65 203.05C552.55 200.787 556.65 196.25 556.275 190.212C555.9 184.175 551.275 184.287 549.1 180.787C546.925 177.287 550.988 165.687 536.275 164.175C521.563 162.662 515.9 164.937 509.85 167.925C506.938 169.495 504.541 171.874 502.95 174.775C501.563 176.087 500.45 177.737 501.113 179.325C502.55 182.775 503.988 185.075 501.975 188.812C499.963 192.55 501.113 195.987 502.838 197.425C504.563 198.862 504.563 202.6 501.688 205.475C498.813 208.35 499.675 210.637 502.263 212.075C504.85 213.512 507.725 217.25 505.138 220.7C502.55 224.15 503.413 229.025 508.588 230.175C510.239 230.443 511.862 230.862 513.438 231.425L514.688 236.937C514.325 239.325 513.875 241.5 515.788 241.937C516.598 242.044 517.42 241.891 518.138 241.5C519.052 241.315 519.95 241.06 520.825 240.737C522.713 239.975 523.463 244.487 525.35 248.237C527.238 251.987 532.85 250.125 535.925 247.475C536.232 247.189 536.599 246.977 537 246.853C537.4 246.73 537.823 246.699 538.238 246.762C539.352 247.623 540.696 248.136 542.1 248.237C543.916 249.176 545.966 249.567 548 249.362C553.663 248.612 552.9 246.35 553.663 242.95C554.425 239.55 557.413 239.55 561.963 235.775C566.513 232 563.388 223.425 560.75 222.675Z" fill="white"/>
</mask>
<g mask="url(#mask15_1032_2)">
<path d="M508.638 169.475C508.638 169.475 511.863 171.275 510.438 176.637C509.013 182 506.488 184.525 509 186.312C511.513 188.1 517.95 191.687 516.5 196.312C515.05 200.937 510.413 205.262 514.35 208.137C518.288 211.012 526.525 212.787 526.175 218.525C525.825 224.262 523.3 228.525 526.525 230.35C529.75 232.175 534.775 228.912 535.488 232.85C536.2 236.787 534.05 242.162 536.563 242.85C539.075 243.537 542.938 242.1 544.063 244.637C544.743 246.21 544.989 247.937 544.775 249.637" stroke="#666666" stroke-linecap="round" stroke-linejoin="round"/>
<path d="M515.45 164.825C515.45 164.825 522.95 166.975 522.613 173.062C522.275 179.15 519.388 188.062 521.9 189.537C524.413 191.012 531.213 193.125 530.5 197.787C529.788 202.45 527.275 206.375 529.425 208.175C531.575 209.975 538.013 213.175 538.013 216.05C538.013 218.925 534.438 218.925 536.938 222.862C539.438 226.8 547.338 226.437 547.688 231.812C548.038 237.187 545.9 240.062 546.975 241.137C548.05 242.212 550.913 245.425 551.975 245.787C553.038 246.15 552.338 251.162 552.338 251.162" stroke="#666666" stroke-linecap="round" stroke-linejoin="round"/>
<path d="M526.2 159.8C526.2 159.8 537.3 165.9 536.588 173.062C535.875 180.225 534.8 183.812 536.588 185.562C538.375 187.312 542.313 189.862 542.313 193.45" stroke="#666666" stroke-linecap="round" stroke-linejoin="round"/>
<path d="M543.75 202.8C543.75 202.8 543.038 209.25 545.9 210.675C548.763 212.1 555.575 219.275 555.575 223.175C555.575 227.075 553.425 231.062 555.938 233.925C558.494 236.525 561.248 238.924 564.175 241.1" stroke="#666666" stroke-linecap="round" stroke-linejoin="round"/>
</g>
<path d="M560.75 222.675C558.113 221.912 562.263 217.012 564.15 212.487C566.038 207.962 560.75 205.312 556.65 203.05C552.55 200.787 556.65 196.25 556.275 190.212C555.9 184.175 551.275 184.287 549.1 180.787C546.925 177.287 550.988 165.687 536.275 164.175C521.563 162.662 515.9 164.937 509.85 167.925C506.938 169.495 504.541 171.874 502.95 174.775C501.563 176.087 500.45 177.737 501.113 179.325C502.55 182.775 503.988 185.075 501.975 188.812C499.963 192.55 501.113 195.987 502.838 197.425C504.563 198.862 504.563 202.6 501.688 205.475C498.813 208.35 499.675 210.637 502.263 212.075C504.85 213.512 507.725 217.25 505.138 220.7C502.55 224.15 503.413 229.025 508.588 230.175C510.239 230.443 511.862 230.862 513.438 231.425L514.688 236.937C514.325 239.325 513.875 241.5 515.788 241.937C516.598 242.044 517.42 241.891 518.138 241.5C519.052 241.315 519.95 241.06 520.825 240.737C522.713 239.975 523.463 244.487 525.35 248.237C527.238 251.987 532.85 250.125 535.925 247.475C536.232 247.189 536.599 246.977 537 246.853C537.4 246.73 537.823 246.699 538.238 246.762C539.352 247.623 540.696 248.136 542.1 248.237C543.916 249.176 545.966 249.567 548 249.362C553.663 248.612 552.9 246.35 553.663 242.95C554.425 239.55 557.413 239.55 561.963 235.775C566.513 232 563.388 223.425 560.75 222.675Z" stroke="#263238" stroke-linecap="round" stroke-linejoin="round"/>
<path d="M38.7375 397.762L31.6875 483.7H34.15L46.825 398.475L38.7375 397.762Z" fill="white" stroke="#263238" stroke-linecap="round" stroke-linejoin="round"/>
<path d="M91.55 397.762L84.5 483.7H86.9625L99.6375 398.475L91.55 397.762Z" fill="white" stroke="#263238" stroke-linecap="round" stroke-linejoin="round"/>
<path d="M97.8749 397.762L104.925 483.7H102.462L89.7874 398.475L97.8749 397.762Z" fill="white" stroke="#263238" stroke-linecap="round" stroke-linejoin="round"/>
<path d="M157.737 397.762L164.775 483.7H162.312L149.637 398.475L157.737 397.762Z" fill="white" stroke="#263238" stroke-linecap="round" stroke-linejoin="round"/>
<path d="M93.3249 260.575H15.1624C15.1624 260.575 5.78739 263.175 9.94989 274.125C14.1124 285.075 37.5749 400.75 37.5749 400.75H161.587L169.412 328.837C169.412 328.837 170.975 318.412 163.675 316.85C156.375 315.287 126.675 316.325 120.95 313.2C115.225 310.075 102.25 264.737 102.25 264.737C102.25 264.737 101.15 259.512 93.3249 260.575Z" fill="#E1C3B8" stroke="#263238" stroke-linecap="round" stroke-linejoin="round"/>
<path d="M99.2874 384.375H161.637" stroke="#263238" stroke-linecap="round" stroke-linejoin="round"/>
<path d="M59.8623 196.262C59.8623 196.262 60.9998 240.625 61.4998 244.612C61.7919 247.903 61.3775 251.218 60.2846 254.335C59.1916 257.452 57.4452 260.3 55.1623 262.687C49.0623 269.262 24.4123 264.325 22.7748 258.225C21.1373 252.125 24.1748 241.975 24.1748 241.975C24.1748 241.975 14.7498 239.925 17.3748 231.75C19.9998 223.575 34.2748 208.987 40.8498 204.062C47.4248 199.137 54.9248 195.087 59.8623 196.262Z" fill="#263238" stroke="#263238" stroke-linecap="round" stroke-linejoin="round"/>
<path d="M42.6624 205.587C42.6624 205.587 28.0124 231.062 25.7874 237.75" stroke="#263238" stroke-linecap="round" stroke-linejoin="round"/>
<path d="M49.9875 204.312C49.9875 204.312 33.7375 237.75 30.875 251.45" stroke="#666666" stroke-linecap="round" stroke-linejoin="round"/>
<path d="M50.6249 217.05C50.6249 217.05 44.1249 235.5 42.6624 242.538" stroke="#666666" stroke-linecap="round" stroke-linejoin="round"/>
<path d="M81.2248 251.887C81.2248 251.887 93.0248 251.587 98.1748 248.862C103.325 246.137 113.912 248.25 117.537 259.15C121.162 270.05 128.137 290.025 130.862 298.2C133.587 306.375 139.937 313.937 139.937 313.937L114.812 323.612L100.287 329.975C100.287 329.975 88.7873 283.975 84.8498 272.162C80.9123 260.35 79.7498 253.4 81.2248 251.887Z" fill="#787878" stroke="#263238" stroke-linecap="round" stroke-linejoin="round"/>
<path d="M184.237 407.462L193.925 427.65L196.387 426.475L189.9 408.775L184.237 407.462Z" fill="#263238" stroke="#263238" stroke-linecap="round" stroke-linejoin="round"/>
<path d="M187.487 366.625C187.487 366.625 199.862 395.937 202.487 398.687C205.112 401.437 219.525 408.312 221.687 408.612C223.85 408.912 228.85 408.863 228.425 410.075C228 411.288 206.425 422.988 202.65 421.438C198.875 419.888 197.8 416.513 193.775 414.413C189.75 412.313 184.175 409.488 181.687 404.3C179.2 399.113 183.337 394.45 183.337 394.45L172.025 374.363L187.487 366.625Z" fill="white" stroke="#263238" stroke-linecap="round" stroke-linejoin="round"/>
<path d="M221.725 408.612C220.979 408.439 220.251 408.196 219.55 407.888C215.587 411.638 207.262 415.312 196.875 408.387C191.461 404.883 186.646 400.532 182.612 395.5C181.727 396.76 181.181 398.227 181.025 399.759C180.87 401.291 181.111 402.838 181.725 404.25C184.225 409.438 189.787 412.262 193.812 414.362C197.837 416.462 198.925 419.837 202.687 421.387C206.45 422.937 228.037 411.237 228.462 410.025C228.887 408.812 223.875 408.925 221.725 408.612Z" fill="#263238" stroke="#263238" stroke-linecap="round" stroke-linejoin="round"/>
<path d="M169.95 311.562C169.95 311.562 188.062 353 192.25 361.45L198.3 373.55L175.3 385.062C175.3 385.062 150.175 337.237 150.175 330.275C150.175 323.312 154.862 316.075 157.887 312.45C160.912 308.825 169.95 311.562 169.95 311.562Z" fill="#263238" stroke="#263238" stroke-linecap="round" stroke-linejoin="round"/>
<path d="M163.5 424.4C163.5 424.4 161.987 456.175 163.187 459.812C164.387 463.45 174.437 475.85 176.212 477.062C177.987 478.275 182.562 480.387 181.65 481.3C180.737 482.212 156.237 483.425 153.512 480.387C150.787 477.35 152 468.887 149.275 465.262C146.55 461.637 142.012 461.625 142.012 455.875C142.012 450.125 147.762 447.7 147.762 447.7L146.25 424.7L163.5 424.4Z" fill="white" stroke="#263238" stroke-linecap="round" stroke-linejoin="round"/>
<path d="M176.262 477.062C175.495 476.429 174.788 475.726 174.15 474.963C170.8 476.213 167.175 477.025 164.45 476.15C157.8 474.037 152.65 469.8 151.137 461.325C150.2 456.05 146.312 452.887 143.525 451.25C142.566 452.601 142.054 454.218 142.062 455.875C142.062 461.625 146.6 461.625 149.325 465.262C152.05 468.9 150.837 477.362 153.562 480.387C156.287 483.412 180.8 482.213 181.7 481.3C182.6 480.388 178.075 478.275 176.262 477.062Z" fill="#263238" stroke="#263238" stroke-linecap="round" stroke-linejoin="round"/>
<path d="M142.962 459.812V482.212H145.687L147.5 463.45L142.962 459.812Z" fill="#263238" stroke="#263238" stroke-linecap="round" stroke-linejoin="round"/>
<path d="M152.35 329.975C152.35 329.975 172.925 332.087 172.625 346.012C172.325 359.937 171.375 426.212 171.375 426.212L143.575 429.25C143.575 429.25 137.513 395.05 139.025 381.125C140.538 367.2 142.963 364.475 142.963 364.475H97.875C97.875 364.475 102.413 354.187 116.938 343.287C131.463 332.387 152.35 329.975 152.35 329.975Z" fill="#263238" stroke="#263238" stroke-linecap="round" stroke-linejoin="round"/>
<path d="M106.95 258.238C107.156 261.693 107.574 265.133 108.2 268.538C109.1 273.075 113.95 275.188 115.462 281.85C116.975 288.513 114.55 291.538 114.85 298.5C115.15 305.463 119.4 314.838 120 318.175C120.6 321.513 116.975 324.225 111.825 327.55C106.675 330.875 61.8875 347.55 55.8375 340.863C49.7875 334.175 54.925 324.825 53.725 317.263C52.525 309.7 46.45 279.125 43.725 267.263C41 255.4 39.55 249.6 46 247C50.5375 245.188 66.6499 251.588 66.6499 251.588C66.6499 251.588 72.4125 252.188 84.8125 252.188" fill="#787878"/>
<path d="M106.95 258.238C107.156 261.693 107.574 265.133 108.2 268.538C109.1 273.075 113.95 275.188 115.462 281.85C116.975 288.513 114.55 291.538 114.85 298.5C115.15 305.463 119.4 314.838 120 318.175C120.6 321.513 116.975 324.225 111.825 327.55C106.675 330.875 61.8875 347.55 55.8375 340.863C49.7875 334.175 54.925 324.825 53.725 317.263C52.525 309.7 46.45 279.125 43.725 267.263C41 255.4 39.55 249.6 46 247C50.5375 245.188 66.6499 251.588 66.6499 251.588C66.6499 251.588 72.4125 252.188 84.8125 252.188" stroke="#263238" stroke-linecap="round" stroke-linejoin="round"/>
<path d="M60.0875 214.575V248.137C60.0875 248.137 66.425 253.537 74.4125 259.875C82.4 266.212 88.2625 267.375 89.4125 261.512C90.5625 255.65 85.4125 248.6 83.775 246.962C82.1375 245.325 82.3625 231.475 82.3625 231.475C82.3625 231.475 65.25 213.4 62.25 211.512C59.25 209.625 60.0875 214.575 60.0875 214.575Z" fill="white" stroke="#263238" stroke-linecap="round" stroke-linejoin="round"/>
<path d="M95.5374 175.837C95.5374 175.837 107.737 179.125 108.037 187.813C108.337 196.5 95.0624 199.787 93.6624 196.75C92.2624 193.712 90.3749 178.2 90.5999 176.087C90.8249 173.975 95.5374 175.837 95.5374 175.837Z" fill="#263238" stroke="#263238" stroke-linecap="round" stroke-linejoin="round"/>
<path d="M97.525 181.95C97.525 181.95 103.162 195.325 100.7 206.588C98.2375 217.85 93.3 230.525 89.45 234.088C85.6 237.65 81 238.55 72.9 231.975C67.05 227.225 59.875 217.888 58.1125 212.963C56.35 208.038 57.7625 198.175 64.1 188.675C70.4375 179.175 93.6625 174.9 97.525 181.95Z" fill="white" stroke="#263238" stroke-linecap="round" stroke-linejoin="round"/>
<path d="M85.075 206.413C85.8758 206.413 86.525 205.31 86.525 203.95C86.525 202.59 85.8758 201.488 85.075 201.488C84.2742 201.488 83.625 202.59 83.625 203.95C83.625 205.31 84.2742 206.413 85.075 206.413Z" fill="#263238"/>
<path d="M97.9498 204.175C97.9498 205.538 97.2999 206.675 96.4999 206.675C95.6999 206.675 95.0374 205.575 95.0374 204.175C95.0374 202.775 95.6874 201.675 96.4999 201.675C97.3124 201.675 97.9498 202.813 97.9498 204.175Z" fill="#263238"/>
<path d="M95.7125 198.575C95.7125 198.575 92.35 201.487 93.2125 205.525C94.075 209.562 95.7125 212.237 95 213.587C94.2875 214.937 91.25 214.925 91.25 214.925" stroke="#263238" stroke-linecap="round" stroke-linejoin="round"/>
<path d="M79.3623 197.237C79.3623 197.237 84.7373 194.325 88.3248 195.662" stroke="#263238" stroke-linecap="round" stroke-linejoin="round"/>
<path d="M96.3875 196.112C96.3875 196.112 98.625 194.1 100.862 197.012" stroke="#263238" stroke-linecap="round" stroke-linejoin="round"/>
<path d="M86.5375 219.85C85.3684 219.85 84.224 219.513 83.2418 218.879C82.2595 218.245 81.4811 217.34 81 216.275" stroke="#263238" stroke-linecap="round" stroke-linejoin="round"/>
<path d="M37.7123 205.75C37.7123 205.75 66.3748 202 80.2123 194.775C94.0498 187.55 99.2498 182.45 98.1248 176.637C96.9998 170.825 83.1248 161.187 67.6748 161.4C61.0974 161.552 54.7131 163.652 49.3303 167.435C43.9475 171.218 39.8084 176.513 37.4373 182.65C33.8998 192.762 37.7123 205.75 37.7123 205.75Z" fill="#263238" stroke="#263238" stroke-linecap="round" stroke-linejoin="round"/>
<path d="M87.2499 175C80.9259 181.829 73.4918 187.539 65.2625 191.887C56.9623 196.014 48.0236 198.706 38.825 199.85" stroke="#666666" stroke-linecap="round" stroke-linejoin="round"/>
<path d="M37.8875 196.663C45.5019 194.323 52.8634 191.228 59.8624 187.425" stroke="#666666" stroke-linecap="round" stroke-linejoin="round"/>
<path d="M64.6375 184.562C64.6375 184.562 77.3874 175.638 83.7499 169.25" stroke="#666666" stroke-linecap="round" stroke-linejoin="round"/>
<path d="M65.1374 206.237C65.1374 206.237 60.5624 196.025 55.2749 199.9C49.9874 203.775 53.525 215.037 56.6875 217.15C59.85 219.262 64.4375 216.1 64.4375 216.1" fill="white"/>
<path d="M65.1374 206.237C65.1374 206.237 60.5624 196.025 55.2749 199.9C49.9874 203.775 53.525 215.037 56.6875 217.15C59.85 219.262 64.4375 216.1 64.4375 216.1" stroke="#263238" stroke-linecap="round" stroke-linejoin="round"/>
<path d="M106 301.525C106 301.525 118.412 299.4 122.95 298.8C127.487 298.2 139.3 302.437 138.687 304.55C138.075 306.662 125.375 308.187 121.188 309.7C117 311.212 107.562 309.088 107.562 309.088L106 301.525Z" fill="white" stroke="#263238" stroke-linecap="round" stroke-linejoin="round"/>
<path d="M60.9998 250.975C60.9998 250.975 56.7623 244.325 46.7748 246.137C36.7873 247.95 33.7498 258.237 34.0623 268.537C34.3748 278.837 45.3123 323.925 49.1873 326.65C53.0623 329.375 108.162 313 108.162 313L106.037 301.5L64.8748 303.95L60.3373 266.75" fill="#787878"/>
<path d="M60.9998 250.975C60.9998 250.975 56.7623 244.325 46.7748 246.137C36.7873 247.95 33.7498 258.237 34.0623 268.537C34.3748 278.837 45.3123 323.925 49.1873 326.65C53.0623 329.375 108.162 313 108.162 313L106.037 301.5L64.8748 303.95L60.3373 266.75" stroke="#263238" stroke-linecap="round" stroke-linejoin="round"/>
<path d="M138.9 301.312L94.9624 322.113L106.687 327.087L162.912 307.463L138.9 301.312Z" fill="white" stroke="#263238" stroke-linecap="round" stroke-linejoin="round"/>
<path d="M173.162 318C173.162 318 170.237 307.45 162.912 307.45C155.587 307.45 108.737 322.687 92.6248 329.125C76.5123 335.562 62.7498 339.375 59.5248 344.362C56.2998 349.35 62.1623 368.375 72.4123 371.3C82.6623 374.225 100.825 370.425 108.437 366.3C116.05 362.175 168.187 325.3 168.187 325.3" fill="#263238"/>
<path d="M173.162 318C173.162 318 170.237 307.45 162.912 307.45C155.587 307.45 108.737 322.687 92.6248 329.125C76.5123 335.562 62.7498 339.375 59.5248 344.362C56.2998 349.35 62.1623 368.375 72.4123 371.3C82.6623 374.225 100.825 370.425 108.437 366.3C116.05 362.175 168.187 325.3 168.187 325.3" stroke="#263238" stroke-linecap="round" stroke-linejoin="round"/>
<path d="M20.1499 316.925C20.1499 316.925 38.8999 331.625 61.8749 333.175C84.8499 334.725 94.9374 339.013 96.3999 351.713C97.8624 364.413 99.5999 400.313 99.5999 400.313L37.5749 400.7L25.3624 340.238L20.1499 316.925Z" fill="#E1C3B8" stroke="#263238" stroke-linecap="round" stroke-linejoin="round"/>
<path d="M34.375 333.863C34.375 333.863 40.125 341.538 54.525 342.813C68.925 344.088 79.775 346.013 83.275 350.813" stroke="#263238" stroke-linecap="round" stroke-linejoin="round"/>
</svg>
